<svg width="12" height="14" viewBox="0 0 12 14" fill="none" xmlns="http://www.w3.org/2000/svg">
<path d="M0.666626 3.66667H11.3333M4.66663 6.33333V10.3333M7.33329 6.33333V10.3333M1.33329 3.66667L1.99996 11.6667C1.99996 12.0203 2.14043 12.3594 2.39048 12.6095C2.64053 12.8595 2.97967 13 3.33329 13H8.66663C9.02025 13 9.35939 12.8595 9.60943 12.6095C9.85948 12.3594 9.99996 12.0203 9.99996 11.6667L10.6666 3.66667M3.99996 3.66667V1.66667C3.99996 1.48986 4.0702 1.32029 4.19522 1.19526C4.32025 1.07024 4.48981 1 4.66663 1H7.33329C7.5101 1 7.67967 1.07024 7.8047 1.19526C7.92972 1.32029 7.99996 1.48986 7.99996 1.66667V3.66667" stroke="#171A4A" stroke-linecap="round" stroke-linejoin="round"/>
</svg>
