<svg width="16" height="16" viewBox="0 0 16 16" fill="none" xmlns="http://www.w3.org/2000/svg">
<path d="M8 14C11.3137 14 14 11.3137 14 8C14 4.68629 11.3137 2 8 2C4.68629 2 2 4.68629 2 8C2 11.3137 4.68629 14 8 14Z" stroke="black" stroke-linecap="round" stroke-linejoin="round"/>
<path d="M8 5.33333C8.36819 5.33333 8.66667 5.03486 8.66667 4.66667C8.66667 4.29848 8.36819 4 8 4C7.63181 4 7.33333 4.29848 7.33333 4.66667C7.33333 5.03486 7.63181 5.33333 8 5.33333Z" stroke="black" stroke-linecap="round" stroke-linejoin="round"/>
<path d="M6 8.66667V8C6 7.82319 6.07024 7.65362 6.19526 7.5286C6.32029 7.40357 6.48986 7.33333 6.66667 7.33333H9.33333C9.51014 7.33333 9.67971 7.40357 9.80474 7.5286C9.92976 7.65362 10 7.82319 10 8V8.66667C10 8.84348 9.92976 9.01305 9.80474 9.13807C9.67971 9.2631 9.51014 9.33333 9.33333 9.33333H9L8.66667 12H7.33333L7 9.33333H6.66667C6.48986 9.33333 6.32029 9.2631 6.19526 9.13807C6.07024 9.01305 6 8.84348 6 8.66667Z" stroke="black" stroke-linecap="round" stroke-linejoin="round"/>
</svg>
