<svg width="48" height="48" viewBox="0 0 48 48" fill="none" xmlns="http://www.w3.org/2000/svg">
<circle cx="24" cy="24" r="24" fill="#F3F3F3"/>
<path d="M20.7 22.7L27.3 19.3M20.7 25.3L27.3 28.7M21 24C21 25.6569 19.6569 27 18 27C16.3431 27 15 25.6569 15 24C15 22.3431 16.3431 21 18 21C19.6569 21 21 22.3431 21 24ZM33 18C33 19.6569 31.6569 21 30 21C28.3431 21 27 19.6569 27 18C27 16.3431 28.3431 15 30 15C31.6569 15 33 16.3431 33 18ZM33 30C33 31.6569 31.6569 33 30 33C28.3431 33 27 31.6569 27 30C27 28.3431 28.3431 27 30 27C31.6569 27 33 28.3431 33 30Z" stroke="black" stroke-width="2" stroke-linecap="round" stroke-linejoin="round"/>
</svg>
