<svg width="16" height="16" viewBox="0 0 16 16" fill="none" xmlns="http://www.w3.org/2000/svg">
<g opacity="0.5">
<path d="M14.6673 6.05002C14.6673 7.14657 14.1911 8.10605 13.4428 8.85993L8.34079 13.8629C8.20473 13.9315 8.13671 14 8.00065 14C7.8646 14 7.72854 13.9315 7.66052 13.8629L2.55847 8.79139C1.81017 8.03751 1.33398 7.0095 1.33398 5.91295C1.33398 4.88494 1.81017 3.92545 2.55847 3.17158C3.3748 2.4177 4.39521 1.93796 5.48364 2.00649C6.368 2.00649 7.18433 2.34917 7.8646 2.89744C9.49725 1.59529 11.8102 1.73236 13.3068 3.24011C14.1911 3.92545 14.6673 4.95347 14.6673 6.05002Z" fill="black"/>
</g>
</svg>
