<svg width="16" height="16" viewBox="0 0 16 16" fill="none" xmlns="http://www.w3.org/2000/svg">
<path d="M4.66663 4.66674H3.99996C3.64634 4.66674 3.3072 4.80721 3.05715 5.05726C2.8071 5.30731 2.66663 5.64645 2.66663 6.00007V12.0001C2.66663 12.3537 2.8071 12.6928 3.05715 12.9429C3.3072 13.1929 3.64634 13.3334 3.99996 13.3334H9.99996C10.3536 13.3334 10.6927 13.1929 10.9428 12.9429C11.1928 12.6928 11.3333 12.3537 11.3333 12.0001V11.3334M10.6666 3.3334L12.6666 5.3334M13.59 4.39007C13.8525 4.12751 14 3.77139 14 3.40007C14 3.02875 13.8525 2.67264 13.59 2.41007C13.3274 2.14751 12.9713 2 12.6 2C12.2286 2 11.8725 2.14751 11.61 2.41007L5.99996 8.00007V10.0001H7.99996L13.59 4.39007Z" stroke="black" stroke-linecap="round" stroke-linejoin="round"/>
</svg>
