<svg width="38" height="38" viewBox="0 0 38 38" fill="none" xmlns="http://www.w3.org/2000/svg">
<path d="M22.4833 17.4163L28.5 25.333H9.49996L14.25 19.158L17.575 23.433L22.1666 17.4163H22.4833ZM13.4583 17.4163C14.725 17.4163 15.8333 16.308 15.8333 15.0413C15.8333 13.7747 14.725 12.6663 13.4583 12.6663C12.1916 12.6663 11.0833 13.7747 11.0833 15.0413C11.0833 16.308 12.1916 17.4163 13.4583 17.4163ZM34.8333 9.49967V28.4997C34.8333 30.2413 33.4083 31.6663 31.6666 31.6663H6.33329C4.59163 31.6663 3.16663 30.2413 3.16663 28.4997V9.49967C3.16663 7.75801 4.59163 6.33301 6.33329 6.33301H31.6666C33.4083 6.33301 34.8333 7.75801 34.8333 9.49967ZM31.6666 13.933V9.49967H6.33329V28.4997H31.6666V13.933Z" fill="white"/>
</svg>
