<svg width="22" height="22" viewBox="0 0 22 22" fill="none" xmlns="http://www.w3.org/2000/svg">
<path d="M3.66675 6.41667H18.3334M9.16675 10.0833V15.5833M12.8334 10.0833V15.5833M4.58341 6.41667L5.50008 17.4167C5.50008 17.9029 5.69324 18.3692 6.03705 18.713C6.38087 19.0568 6.84718 19.25 7.33341 19.25H14.6667C15.153 19.25 15.6193 19.0568 15.9631 18.713C16.3069 18.3692 16.5001 17.9029 16.5001 17.4167L17.4167 6.41667M8.25008 6.41667V3.66667C8.25008 3.42355 8.34666 3.19039 8.51857 3.01849C8.69048 2.84658 8.92363 2.75 9.16675 2.75H12.8334C13.0765 2.75 13.3097 2.84658 13.4816 3.01849C13.6535 3.19039 13.7501 3.42355 13.7501 3.66667V6.41667" stroke="#CA0000" stroke-linecap="round" stroke-linejoin="round"/>
</svg>
