<svg width="33" height="26" viewBox="0 0 33 26" fill="none" xmlns="http://www.w3.org/2000/svg">
<path d="M19.7315 11.4163L25.7481 19.333H6.74813L11.4981 13.158L14.8231 17.433L19.4148 11.4163H19.7315ZM10.7065 11.4163C11.9731 11.4163 13.0815 10.308 13.0815 9.04134C13.0815 7.77467 11.9731 6.66634 10.7065 6.66634C9.43979 6.66634 8.33146 7.77467 8.33146 9.04134C8.33146 10.308 9.43979 11.4163 10.7065 11.4163ZM32.0815 3.49967V22.4997C32.0815 24.2413 30.6565 25.6663 28.9148 25.6663H3.58146C1.83979 25.6663 0.414795 24.2413 0.414795 22.4997V3.49967C0.414795 1.75801 1.83979 0.333008 3.58146 0.333008H28.9148C30.6565 0.333008 32.0815 1.75801 32.0815 3.49967ZM28.9148 7.93301V3.49967H3.58146V22.4997H28.9148V7.93301Z" fill="#CCCCCC"/>
</svg>
