<svg width="146" height="30" viewBox="0 0 146 30" fill="none" xmlns="http://www.w3.org/2000/svg">
<path d="M16.864 23L15.2 17.56H6.88L5.216 23H0L8.064 0.0559998H13.984L22.08 23H16.864ZM12.384 8.184C12.2773 7.82133 12.1387 7.36267 11.968 6.808C11.7973 6.25333 11.6267 5.688 11.456 5.112C11.2853 4.536 11.1467 4.03467 11.04 3.608C10.9333 4.03467 10.784 4.568 10.592 5.208C10.4213 5.82667 10.2507 6.424 10.08 7C9.93067 7.55467 9.81333 7.94933 9.728 8.184L8.096 13.496H14.048L12.384 8.184ZM39.3418 5.528V19.512H41.9018V29.272H37.6138V23H25.8698V29.272H21.5818V19.512H23.0538C23.8218 18.3387 24.4724 17.0053 25.0058 15.512C25.5391 13.9973 25.9658 12.3867 26.2858 10.68C26.6058 8.97333 26.8404 7.256 26.9898 5.528H39.3418ZM30.9898 9.112C30.8191 10.392 30.6058 11.64 30.3498 12.856C30.0938 14.0507 29.7738 15.2027 29.3898 16.312C29.0271 17.4213 28.5791 18.488 28.0458 19.512H34.5738V9.112H30.9898ZM65.9358 5.528V23H61.4878V14.424C61.4878 13.5707 61.4984 12.7387 61.5198 11.928C61.5624 11.1173 61.6158 10.3707 61.6798 9.688H61.5838L56.7518 23H53.1678L48.2718 9.656H48.1438C48.2291 10.36 48.2824 11.1173 48.3038 11.928C48.3464 12.7173 48.3678 13.592 48.3678 14.552V23H43.9198V5.528H50.6718L55.0238 17.368L59.4398 5.528H65.9358ZM74.5678 12.44C74.5678 12.8027 74.5464 13.2507 74.5038 13.784C74.4824 14.3173 74.4504 14.8613 74.4078 15.416C74.3864 15.9707 74.3544 16.4613 74.3118 16.888C74.2691 17.3147 74.2371 17.6133 74.2158 17.784L82.2798 5.528H88.0078V23H83.3998V16.024C83.3998 15.448 83.4211 14.8187 83.4638 14.136C83.5064 13.432 83.5491 12.7813 83.5918 12.184C83.6558 11.5653 83.6984 11.096 83.7198 10.776L75.6878 23H69.9598V5.528H74.5678V12.44ZM96.799 5.528V12.248H103.455V5.528H108.223V23H103.455V15.8H96.799V23H92.031V5.528H96.799ZM123.714 5.528H128.962L122.05 13.912L129.57 23H124.162L117.026 14.136V23H112.258V5.528H117.026V14.008L123.714 5.528ZM138.279 5.176C140.626 5.176 142.418 5.688 143.655 6.712C144.914 7.71467 145.543 9.26133 145.543 11.352V23H142.215L141.287 20.632H141.159C140.668 21.2507 140.156 21.7627 139.623 22.168C139.111 22.5733 138.514 22.8613 137.831 23.032C137.17 23.224 136.348 23.32 135.367 23.32C134.343 23.32 133.415 23.128 132.583 22.744C131.772 22.3387 131.132 21.7307 130.663 20.92C130.194 20.088 129.959 19.0427 129.959 17.784C129.959 15.928 130.61 14.5627 131.911 13.688C133.212 12.792 135.164 12.3013 137.767 12.216L140.807 12.12V11.352C140.807 10.4347 140.562 9.76267 140.071 9.336C139.602 8.90933 138.94 8.696 138.087 8.696C137.234 8.696 136.402 8.824 135.591 9.08C134.78 9.31467 133.97 9.61333 133.159 9.976L131.591 6.744C132.53 6.25333 133.564 5.86933 134.695 5.592C135.847 5.31467 137.042 5.176 138.279 5.176ZM138.951 14.968C137.415 15.0107 136.348 15.288 135.751 15.8C135.154 16.312 134.855 16.984 134.855 17.816C134.855 18.5413 135.068 19.064 135.495 19.384C135.922 19.6827 136.476 19.832 137.159 19.832C138.183 19.832 139.047 19.5333 139.751 18.936C140.455 18.3173 140.807 17.4533 140.807 16.344V14.904L138.951 14.968Z" fill="#121212"/>
</svg>
