<svg width="48" height="48" viewBox="0 0 48 48" fill="none" xmlns="http://www.w3.org/2000/svg">
<circle cx="24" cy="24" r="24" fill="#F3F3F3"/>
<path d="M32 24.2564C32 27.7436 31.4904 33.0769 31.4904 33.2821C31.4904 33.4872 31.2866 33.7949 31.0828 33.8974C30.9809 34 30.879 34 30.6752 34C30.5732 34 30.4713 34 30.2675 33.8974L24.051 30.6154C23.949 30.6154 23.8471 30.6154 23.8471 30.6154L17.6306 33.8974C17.4268 34 17.121 34 16.9172 33.8974C16.7134 33.7949 16.5096 33.5897 16.5096 33.2821C16.5096 33.0769 16 27.7436 16 24.2564C16.1019 22 16.3057 19.0256 16.5096 16.8718C16.6115 15.5385 17.6306 14.5128 18.9554 14.3077C20.3822 14.2051 22.4204 14 24.051 14C25.6815 14 27.7197 14.2051 29.1465 14.3077C30.4713 14.4103 31.4904 15.5385 31.5924 16.8718C31.7962 19.0256 32 22 32 24.2564Z" fill="#030D45"/>
</svg>
