<svg width="12" height="12" viewBox="0 0 12 12" fill="none" xmlns="http://www.w3.org/2000/svg">
<path d="M1 1.41667L1.41667 1H4.75L5.16667 1.41667V4.33333V4.75L4.75 5.16667H1.41667L1 4.75V4.33333V3.91667V1.83333V1.41667Z" stroke="black" stroke-width="0.833333"/>
<path d="M6.83301 1.41667L7.24967 1H10.583L10.9997 1.41667V4.33333V4.75L10.583 5.16667H7.24967L6.83301 4.75V4.33333V3.91667V1.83333V1.41667Z" stroke="black" stroke-width="0.833333"/>
<path d="M6.83301 7.24967L7.24967 6.83301H10.583L10.9997 7.24967V10.1663V10.583L10.583 10.9997H7.24967L6.83301 10.583V10.1663V9.74967V7.66634V7.24967Z" stroke="black" stroke-width="0.833333"/>
<path d="M1 7.24967L1.41667 6.83301H4.75L5.16667 7.24967V10.1663V10.583L4.75 10.9997H1.41667L1 10.583V10.1663V9.74967V7.66634V7.24967Z" stroke="black" stroke-width="0.833333"/>
</svg>
