<svg width="48" height="48" viewBox="0 0 48 48" fill="none" xmlns="http://www.w3.org/2000/svg">
<circle cx="24" cy="24" r="24" fill="#F3F3F3"/>
<path d="M31.4993 24.5721L23.9993 32.0001L16.4993 24.5721C16.0046 24.0907 15.615 23.5121 15.3549 22.8727C15.0948 22.2333 14.9699 21.547 14.9881 20.857C15.0062 20.167 15.1671 19.4882 15.4605 18.8634C15.7539 18.2386 16.1735 17.6813 16.6928 17.2266C17.2122 16.772 17.82 16.4297 18.4781 16.2215C19.1362 16.0133 19.8303 15.9436 20.5167 16.0169C21.2031 16.0901 21.8668 16.3046 22.4662 16.647C23.0656 16.9893 23.5876 17.4521 23.9993 18.0061C24.4129 17.4561 24.9355 16.9974 25.5344 16.6587C26.1334 16.3199 26.7958 16.1085 27.4803 16.0376C28.1647 15.9666 28.8564 16.0378 29.5121 16.2464C30.1678 16.4551 30.7734 16.7969 31.2909 17.2504C31.8084 17.7039 32.2268 18.2593 32.5197 18.8819C32.8127 19.5046 32.9741 20.1809 32.9936 20.8688C33.0132 21.5566 32.8906 22.241 32.6335 22.8793C32.3763 23.5176 31.9902 24.0959 31.4993 24.5781" stroke="black" stroke-width="1.5" stroke-linecap="round" stroke-linejoin="round"/>
</svg>
